<?xml version="1.0" encoding="utf-8"?>
<!-- Generator: Adobe Illustrator 28.1.0, SVG Export Plug-In . SVG Version: 6.00 Build 0)  -->
<svg version="1.1" id="Capa_1" xmlns="http://www.w3.org/2000/svg" xmlns:xlink="http://www.w3.org/1999/xlink" x="0px" y="0px"
	 viewBox="0 0 192.86 40" style="enable-background:new 0 0 192.86 40;" xml:space="preserve">
<style type="text/css">
	.st0{fill:#09FCA7;}
	.st1{fill:#FFFFFF;}
</style>
<g>
	<g>
		<path class="st0" d="M30.16,19c0,1.93-1.56,3.49-3.49,3.49c-0.89,0-1.71-0.34-2.33-0.89v7.88H3.38V8.52h7.18
			c-0.13,0.36-0.2,0.76-0.2,1.16c0,1.93,1.56,3.49,3.49,3.49c1.93,0,3.49-1.56,3.49-3.49c0-0.41-0.07-0.8-0.2-1.16h7.18v0.89
			c0,0-0.01,0.01-0.01,0.01c0.01,0.09,0.01,0.18,0.01,0.27v6.71c0.62-0.55,1.43-0.89,2.33-0.89C28.6,15.51,30.16,17.07,30.16,19z"/>
	</g>
	<g id="aJUePc.tif_00000003783218389081476150000010067561521324169126_">
		<g>
			<path class="st1" d="M54.64,17.89v13.69c0,0.64,0,0.64-0.64,0.64c-1.12,0-2.24-0.01-3.36,0c-0.27,0-0.46-0.05-0.55-0.34
				c-0.78-2.48-1.58-4.96-2.37-7.43c-1.01-3.19-2.02-6.38-3.03-9.56c-0.09-0.27-0.2-0.54-0.41-0.8c-0.02,0.24-0.05,0.48-0.05,0.72
				c0,5.57,0,11.13,0,16.7c0,0.72,0,0.72-0.75,0.72c-0.99,0-1.98-0.03-2.97,0.01c-0.5,0.02-0.62-0.15-0.62-0.63
				c0.01-8.27,0.01-16.54,0.01-24.81c0-0.48,0.01-0.97,0-1.46C39.89,5.06,40,4.96,40.26,4.96c1.3,0.01,2.59-0.01,3.89,0.02
				c0.14,0,0.35,0.16,0.4,0.3c0.49,1.45,0.95,2.92,1.41,4.38c0.67,2.12,1.32,4.25,2,6.37c0.69,2.16,1.38,4.31,2.08,6.46
				c0.04,0.13,0.11,0.25,0.17,0.37c0.04,0,0.09-0.01,0.14-0.01c0.02-0.21,0.06-0.42,0.06-0.62c0-5.54,0-11.07,0-16.61
				c0-0.65,0-0.65,0.67-0.66c1.01,0,2.01,0.02,3.02-0.01c0.43-0.01,0.55,0.13,0.55,0.55C54.63,9.63,54.64,13.76,54.64,17.89z"/>
			<path class="st1" d="M97.29,27.71c-0.06,0.97-0.04,1.97-0.61,2.85c-0.67,1.04-1.66,1.59-2.83,1.62c-2.46,0.07-4.93,0.1-7.39,0
				c-1.6-0.07-3.04-1.04-3.28-2.99c-0.05-0.43-0.1-0.86-0.1-1.3c-0.01-3.08,0-6.15,0-9.23c0-3.25-0.01-6.51,0.01-9.76
				c0-0.45,0.07-0.91,0.19-1.34c0.43-1.6,1.78-2.42,3.28-2.49c2.04-0.09,4.08-0.11,6.12-0.1c0.72,0.01,1.45,0.13,2.14,0.33
				c1.57,0.45,2.26,1.58,2.38,3.09c0.12,1.64,0.08,3.29,0.13,4.94c0.01,0.39-0.12,0.5-0.5,0.5c-1.3-0.02-2.59-0.02-3.89,0
				c-0.37,0-0.51-0.1-0.5-0.49c0.02-1.2,0.01-2.4,0.01-3.59c0-0.97-0.16-1.25-1.13-1.33c-0.89-0.07-1.81,0.02-2.7,0.09
				c-0.47,0.04-0.69,0.38-0.72,0.84c-0.01,0.11,0,0.23,0,0.34v17.87c0,0.13,0,0.26,0.01,0.39c0.05,0.57,0.33,0.85,0.91,0.86
				c0.91,0.01,1.81,0.01,2.72,0c0.61-0.01,0.91-0.33,0.92-0.95c0.01-1.28,0.02-2.56-0.01-3.84c-0.01-0.43,0.14-0.56,0.56-0.55
				c1.28,0.02,2.56,0.02,3.84,0c0.4-0.01,0.5,0.14,0.49,0.51C97.3,25.22,97.36,26.47,97.29,27.71z"/>
			<path class="st1" d="M114.29,14.73c-0.04-1.7-0.85-2.97-2.6-3.42c-0.65-0.17-1.34-0.27-2.01-0.26c-2.02,0.03-4.04,0.02-6.05,0.21
				c-2.06,0.2-3.05,1.65-3.07,3.44c-0.05,4.61-0.08,9.22,0.01,13.84c0.04,2.27,1.21,3.48,3.59,3.63c2.13,0.14,4.28,0.12,6.41,0.01
				c2.34-0.12,3.68-1.3,3.72-3.82c0.04-2.23,0.01-4.47,0.01-6.7C114.3,19.36,114.35,17.04,114.29,14.73z M109.75,27.55
				c0,0.89-0.34,1.23-1.24,1.23c-0.73,0.01-1.46,0.01-2.19,0c-0.86-0.01-1.23-0.36-1.23-1.21c-0.01-3.95,0-7.89,0-11.84
				c0-0.81,0.38-1.18,1.2-1.19c0.73-0.01,1.46,0,2.19,0c0.91,0,1.27,0.36,1.27,1.26c0,1.96,0,3.92,0,5.87S109.75,25.6,109.75,27.55z
				"/>
			<path class="st1" d="M147.97,32.22c-1.18,0-2.37-0.02-3.55,0.01c-0.47,0.01-0.6-0.13-0.6-0.6c0.02-5.23,0.01-10.46,0.01-15.69
				c0-0.96-0.22-1.18-1.16-1.18c-0.54,0-1.07-0.01-1.61,0c-0.66,0.01-1.13,0.45-1.17,1.11c-0.01,0.16,0,0.32,0,0.48v15.2
				c0,0.65,0,0.66-0.66,0.66c-1.18,0-2.37-0.01-3.55,0.01c-0.37,0.01-0.47-0.12-0.47-0.48c0.01-6.77,0.01-13.53,0.01-20.3
				c0-0.11,0.02-0.22,0.04-0.41h0.62c2.43,0,4.87-0.02,7.3,0.01c0.82,0.01,1.64,0.11,2.45,0.2c1.66,0.19,2.88,1.59,2.89,3.36
				c0.04,5.66,0.07,11.32,0.11,16.98C148.61,32.22,148.61,32.22,147.97,32.22z"/>
			<path class="st1" d="M72.43,16.02c0-0.63-0.02-1.26-0.1-1.88c-0.21-1.54-1.32-2.72-2.89-2.88c-1.49-0.14-2.99-0.2-4.49-0.21
				c-1.13-0.01-2.26,0.04-3.38,0.21c-1.72,0.26-2.85,1.6-2.88,3.33c-0.03,2.34-0.01,4.69-0.01,7.04h0c0,2.38-0.04,4.76,0.02,7.13
				c0.04,1.34,0.6,2.48,1.94,2.99c0.68,0.26,1.43,0.42,2.16,0.45c1.83,0.06,3.66,0.04,5.49,0.01c0.62-0.01,1.26-0.12,1.85-0.3
				c0.65-0.19,1.21-0.57,1.61-1.17c0.5-0.75,0.67-1.57,0.68-2.43C72.45,24.2,72.44,20.11,72.43,16.02z M67.91,27.48
				c-0.05,0.98-0.4,1.31-1.4,1.31c-0.7,0-1.39,0.01-2.09,0c-0.84-0.01-1.18-0.35-1.18-1.19c0-1.99,0-3.98,0-5.97
				c0-1.99,0-3.98,0-5.97c0-0.72,0.32-1.08,1.05-1.11c0.81-0.03,1.62-0.03,2.43,0c0.79,0.03,1.12,0.38,1.18,1.18
				c0.02,0.27,0.01,0.55,0.01,0.83v10.48C67.91,27.19,67.91,27.33,67.91,27.48z"/>
			<path class="st1" d="M131.3,31.64c0,0.42-0.08,0.6-0.56,0.59c-3.1-0.03-6.19,0-9.29-0.03c-1.94-0.02-3.44-1.49-3.45-3.41
				c-0.03-5.78-0.01-11.56-0.02-17.33c0-0.35,0.14-0.43,0.46-0.43c1.2,0.01,2.4,0.02,3.6,0c0.43-0.01,0.52,0.17,0.52,0.55
				c-0.01,2.99-0.01,5.99-0.01,8.98v6.26c0,0.18,0,0.36,0.01,0.54c0.04,0.88,0.22,1.16,1.07,1.26c0.62,0.08,1.27,0.08,1.88-0.03
				c0.79-0.13,1.09-0.59,1.09-1.42c0-2.54,0-5.08,0-7.62c0-2.64,0.01-5.28-0.01-7.91c0-0.47,0.14-0.62,0.61-0.61
				c1.18,0.03,2.37,0.03,3.55,0c0.44-0.01,0.55,0.15,0.55,0.56c-0.01,3.35-0.01,6.7-0.01,10.05
				C131.29,24.97,131.28,28.31,131.3,31.64z"/>
			<path class="st1" d="M186.79,11.04c-0.1,0.58-0.17,1.12-0.27,1.64c-0.42,2.23-0.86,4.47-1.29,6.7c-0.48,2.52-0.95,5.03-1.44,7.55
				c-0.59,3.07-1.19,6.14-1.78,9.21c-0.15,0.76-0.27,1.52-0.39,2.29c-0.06,0.41-0.23,0.6-0.69,0.59c-1.2-0.04-2.4-0.01-3.6-0.01
				c-0.54,0-0.6-0.07-0.48-0.59c0.44-1.93,0.9-3.86,1.32-5.8c0.06-0.29,0.06-0.61-0.01-0.9c-0.64-2.5-1.31-4.99-1.97-7.49
				c-0.79-2.99-1.58-5.99-2.38-8.98c-0.33-1.22-0.66-2.43-0.99-3.65c-0.04-0.15-0.06-0.31-0.11-0.55c1.44,0,2.8-0.01,4.16,0.02
				c0.14,0,0.36,0.26,0.4,0.43c0.66,3.02,1.3,6.05,1.94,9.08c0.29,1.39,0.57,2.78,0.86,4.17c0.03,0.15,0.1,0.3,0.19,0.59
				c0.11-0.39,0.21-0.64,0.24-0.91c0.33-2.47,0.65-4.95,0.99-7.42c0.26-1.85,0.54-3.7,0.83-5.54c0.03-0.15,0.22-0.4,0.34-0.4
				C184.02,11.03,185.36,11.04,186.79,11.04z"/>
			<path class="st1" d="M160.31,11.47c-0.04,0.95-0.04,1.9-0.03,2.85c0,0.34-0.13,0.46-0.47,0.44c-0.65-0.03-1.29-0.05-1.94-0.04
				c-0.13,0-0.29,0.18-0.37,0.31c-0.06,0.09-0.02,0.25-0.02,0.38c0,3.93,0,7.87,0,11.8c0,0.97,0.34,1.3,1.32,1.32
				c0.39,0,0.78-0.02,1.17,0.02c0.11,0.01,0.31,0.17,0.31,0.26c0.01,0.98-0.03,1.97-0.03,2.95c0,0.37-0.14,0.47-0.49,0.46
				c-1.07-0.02-2.14,0.02-3.21-0.03c-1.92-0.09-3.5-1.22-3.64-3.24c-0.03-0.48-0.1-0.96-0.1-1.44c-0.01-4.05,0-8.09,0-12.14
				c0-0.67,0-0.63-0.67-0.62c-1.69,0.01-1.35,0.23-1.38-1.26c-0.02-0.79,0-1.58,0-2.45c0.58,0,1.08-0.03,1.58,0.01
				c0.38,0.03,0.48-0.11,0.48-0.46c-0.01-0.95,0.01-1.91-0.01-2.86c-0.01-0.36,0.11-0.48,0.47-0.48c1.25,0.02,2.5,0.02,3.75,0
				c0.37-0.01,0.48,0.12,0.47,0.48c-0.02,0.94,0.01,1.88-0.01,2.82c-0.01,0.37,0.11,0.52,0.5,0.5c0.65-0.03,1.3,0,1.95-0.01
				C160.24,11.03,160.32,11.14,160.31,11.47z"/>
			<path class="st1" d="M172.03,11.63c-0.05,0.98-0.04,1.97-0.04,2.96c0,0.37-0.18,0.45-0.52,0.45c-0.61,0-1.22,0.05-1.84,0.08
				c-1.31,0.06-2.11,1.5-2.11,2.67c0,4.55,0,9.1,0,13.64c0,0.15,0.04,0.31-0.01,0.43c-0.07,0.14-0.22,0.33-0.33,0.34
				c-1.33,0.02-2.66,0.01-3.99,0.02c-0.34,0-0.34-0.21-0.34-0.45c0-1.34,0-2.69,0-4.03V11.72c0-0.68,0-0.68,0.66-0.68
				c2.64,0,5.29,0.01,7.93-0.01C171.9,11.02,172.05,11.15,172.03,11.63z"/>
		</g>
	</g>
</g>
</svg>
